<svg xmlns="http://www.w3.org/2000/svg" viewBox="0 0 256 256" role="img" aria-labelledby="title"><title id="title">Card Empire KE monogram</title><defs><linearGradient id="metal" x1=".1" y1="0" x2=".9" y2="1"><stop stop-color="#effff3"/><stop offset=".14" stop-color="#7dffaf"/><stop offset=".45" stop-color="#1fcb7a"/><stop offset=".72" stop-color="#075c33"/><stop offset="1" stop-color="#8affb6"/></linearGradient><filter id="glow" x="-40%" y="-40%" width="180%" height="180%"><feGaussianBlur stdDeviation="4" result="b"/><feMerge><feMergeNode in="b"/><feMergeNode in="SourceGraphic"/></feMerge></filter></defs><g filter="url(#glow)"><path d="M29 24h48v77l49-77h55l-59 87 60 95h-56l-49-80v80H29Z" fill="url(#metal)" stroke="#baffd0" stroke-width="2"/><path d="M109 103h110l-17 29h-60l-9 14h58l-16 27h-58l-10 15h57l-16 29H56Z" fill="url(#metal)" stroke="#a9ffc5" stroke-width="2"/><path d="M190 64h55l-11 18h-55Zm-11 22h55l-11 18h-55Zm-11 22h44l-11 18h-44Z" fill="url(#metal)"/></g></svg>
